# xmcd CD database file
#
# Track frame offsets:
#	150
#	19197
#	42391
#	58194
#	74813
#	90506
#	106560
#	118952
#	144490
#	165787
#	176792
#	188939
#
# Disc length: 2700 seconds
#
# Revision: 0
# Processed by: cddbd v1.5.1PL2 Copyright (c) Steve Scherf et al.
# Submitted via: CDex 1.51
#
DISCID=a70a8a0c
DTITLE=Jimmy Giuffre - Night Dance
DYEAR=2002
DGENRE=Jazz
TTITLE0=Night Dance 
TTITLE1=Phoenix 
TTITLE2=Feast Dance 
TTITLE3=Moonlight 
TTITLE4=The Waiting 
TTITLE5=Dervish 
TTITLE6=The Bird 
TTITLE7=Mosquito Dance 
TTITLE8=The Chanting 
TTITLE9=The Butterfly 
TTITLE10=Flute Song 
TTITLE11=Eternal Chant 
EXTD=YEAR: 2002
EXTT0=
EXTT1=
EXTT2=
EXTT3=
EXTT4=
EXTT5=
EXTT6=
EXTT7=
EXTT8=
EXTT9=
EXTT10=
EXTT11=
PLAYORDER=
